<svg width="42" height="41" viewBox="0 0 42 41" fill="none" xmlns="http://www.w3.org/2000/svg">
<path fill-rule="evenodd" clip-rule="evenodd" d="M20.8534 0C9.33788 0 0 9.33591 0 20.8533C0 30.0668 5.97518 37.8835 14.2608 40.641C15.3029 40.8339 15.6856 40.1884 15.6856 39.6377C15.6856 39.1407 15.6665 37.4977 15.6574 35.7552C9.85598 37.0168 8.63181 33.2948 8.63181 33.2948C7.68312 30.8846 6.3165 30.2435 6.3165 30.2435C4.42429 28.9492 6.45913 28.9759 6.45913 28.9759C8.55293 29.1229 9.65573 31.1252 9.65573 31.1252C11.5156 34.313 14.534 33.3912 15.7242 32.8584C15.9114 31.5108 16.4516 30.5905 17.0481 30.0699C12.4163 29.5427 7.54702 27.7544 7.54702 19.764C7.54702 17.4875 8.36174 15.6272 9.69583 14.1668C9.47933 13.6413 8.76547 11.5205 9.89788 8.64793C9.89788 8.64793 11.6491 8.0878 15.6338 10.7858C17.2973 10.3237 19.0813 10.092 20.8535 10.0839C22.6255 10.092 24.4108 10.3237 26.0773 10.7858C30.0577 8.0878 31.8064 8.64793 31.8064 8.64793C32.9414 11.5205 32.2275 13.6413 32.011 14.1668C33.3482 15.6272 34.1571 17.4874 34.1571 19.764C34.1571 27.7737 29.2788 29.5369 24.635 30.0533C25.383 30.7005 26.0493 31.9695 26.0493 33.915C26.0493 36.7052 26.0255 38.9508 26.0255 39.6377C26.0255 40.1928 26.4007 40.8431 27.4576 40.6384C35.739 37.8778 41.7066 30.0638 41.7066 20.8533C41.7066 9.33591 32.3701 0 20.8534 0Z" fill="#244841"/>
<path d="M7.89836 29.9406C7.85247 30.0445 7.68928 30.0755 7.54086 30.0044C7.38948 29.9363 7.30484 29.795 7.35369 29.6911C7.39857 29.5844 7.56171 29.5548 7.71284 29.626C7.86431 29.6941 7.95068 29.8367 7.89836 29.9406Z" fill="#244841"/>
<path d="M8.74301 30.8829C8.64361 30.9749 8.4489 30.9321 8.31699 30.7865C8.18042 30.641 8.15519 30.4464 8.25612 30.3531C8.35865 30.261 8.5472 30.3041 8.68369 30.4496C8.82034 30.5966 8.8469 30.7895 8.74301 30.8829Z" fill="#244841"/>
<path d="M9.56528 32.0838C9.43744 32.1728 9.22836 32.0894 9.09916 31.904C8.97132 31.7185 8.97135 31.496 9.10216 31.4069C9.23136 31.3179 9.43747 31.3981 9.56828 31.582C9.69579 31.7706 9.69575 31.9932 9.56528 32.0838Z" fill="#244841"/>
<path d="M10.6916 33.2442C10.5772 33.3703 10.3337 33.3362 10.1557 33.1642C9.97324 32.9963 9.92265 32.7576 10.0369 32.6314C10.153 32.5053 10.3978 32.5407 10.5772 32.7113C10.7583 32.8792 10.8132 33.1193 10.6916 33.2442Z" fill="#244841"/>
<path d="M12.2455 33.9179C12.195 34.0811 11.9606 34.1553 11.7245 34.0859C11.4885 34.0143 11.3344 33.8231 11.3819 33.6582C11.4307 33.4937 11.6664 33.4165 11.9041 33.4907C12.1399 33.5618 12.2944 33.7517 12.2455 33.9179Z" fill="#244841"/>
<path d="M13.9523 34.0427C13.958 34.2146 13.7577 34.3573 13.5098 34.3604C13.2606 34.3661 13.0585 34.2269 13.0559 34.0576C13.0559 33.8838 13.2517 33.7428 13.501 33.7385C13.7489 33.7338 13.9523 33.872 13.9523 34.0427Z" fill="#244841"/>
<path d="M15.5404 33.7726C15.57 33.9403 15.3976 34.1126 15.1514 34.1585C14.9093 34.203 14.6855 34.0991 14.6545 33.9328C14.6245 33.7609 14.7997 33.5886 15.0416 33.544C15.2882 33.5012 15.509 33.602 15.5404 33.7726Z" fill="#244841"/>
</svg>
