<svg width="41" height="41" viewBox="0 0 41 41" fill="none" xmlns="http://www.w3.org/2000/svg">
<path d="M21.5643 18.5703V18.5078C21.5513 18.5289 21.5375 18.55 21.5237 18.5703H21.5643Z" fill="#244841"/>
<path d="M37.138 0.367676H2.96238C1.32662 0.367676 0 1.66265 0 3.25865V37.8343C0 39.4295 1.32662 40.7245 2.96238 40.7245H37.138C38.7762 40.7245 40.1028 39.4287 40.1028 37.8343V3.25865C40.1028 1.66184 38.7754 0.367676 37.138 0.367676ZM12.1554 34.1514H6.09839V15.9285H12.1554V34.1514ZM9.1273 13.4391H9.08673C7.05501 13.4391 5.74057 12.0395 5.74057 10.2909C5.74057 8.50346 7.09558 7.14276 9.16706 7.14276C11.2393 7.14276 12.514 8.50346 12.5546 10.2909C12.5546 12.0395 11.2385 13.4391 9.1273 13.4391ZM33.9971 34.1514H27.9401V24.4002C27.9401 21.9514 27.0638 20.2799 24.8723 20.2799C23.1992 20.2799 22.2028 21.407 21.7638 22.4958C21.604 22.8845 21.5651 23.4281 21.5651 23.9734V34.1506H15.5081C15.5081 34.1506 15.5876 17.6356 15.5081 15.9277H21.5651V18.5071C22.37 17.2656 23.8094 15.4976 27.0249 15.4976C31.0096 15.4976 33.998 18.103 33.998 23.7007L33.9971 34.1514Z" fill="#244841"/>
</svg>
